<svg xmlns="http://www.w3.org/2000/svg" width="221" height="56"><g fill="none"><path fill="#1A4052" d="M76.956 53.872V1.953c0-.752.353-1.128 1.06-1.128h6.938c1.413.137 2.307.308 2.683.513.376.205.929.797 1.658 1.777l21.704 31.719V1.954c0-.753.342-1.129 1.025-1.129h8.921c.684 0 1.026.376 1.026 1.128v51.92c0 .751-.342 1.127-1.026 1.127h-6.528c-1.504 0-2.666-.581-3.486-1.743L87.96 19.59v34.282c0 .752-.352 1.128-1.059 1.128h-8.886c-.707 0-1.06-.376-1.06-1.128zm54.175 0V16.855c0-.706.353-1.06 1.06-1.06h8.237c.706 0 1.06.354 1.06 1.06v37.017c0 .752-.354 1.128-1.06 1.128h-8.238c-.706 0-1.06-.376-1.06-1.128zm17.534-18.457c0-4.352.234-7.707.7-10.066.468-2.358 1.328-4.3 2.581-5.828 1.322-1.572 3.07-2.643 5.247-3.212 2.176-.57 5.258-.855 9.245-.855 4.603 0 8.409.308 11.416.923.798.137 1.197.592 1.197 1.367v5.537c0 .752-.399 1.128-1.197 1.128h-11.416c-3.144 0-5.172.695-6.084 2.085-.888 1.345-1.333 4.318-1.333 8.921 0 4.512.445 7.474 1.333 8.887.912 1.39 2.94 2.085 6.084 2.085h11.416c.798 0 1.197.353 1.197 1.06v5.605c0 .752-.399 1.196-1.197 1.333-3.053.638-6.858.957-11.416.957-3.964 0-7.04-.28-9.228-.838-2.188-.558-3.942-1.6-5.264-3.127-1.276-1.595-2.142-3.572-2.597-5.93-.456-2.359-.684-5.703-.684-10.032zm36.948 18.457V1.953c0-.752.353-1.128 1.06-1.128h8.237c.707 0 1.06.376 1.06 1.128V29.23l10.014-12.715c.342-.479.832-.718 1.47-.718h9.434c.729 0 1.093.17 1.093.513 0 .205-.148.478-.444.82l-11.28 14.082 14.356 21.91c.205.386.308.717.308.99 0 .593-.501.889-1.504.889h-8.818c-.73 0-1.242-.262-1.538-.786L195.97 33.569v20.303c0 .752-.353 1.128-1.06 1.128h-8.237c-.707 0-1.06-.376-1.06-1.128z"/><path fill="#1A3E52" d="M10 18l6 24H3.675a3 3 0 01-2.727-4.25L10 18z"/><path fill="#296480" d="M30 18H10l8 36 15-29z"/><path fill="#57A3BD" d="M39.206 54H18.7c-.596 0-.863-.448-.596-1L43.232 1c.266-.552.966-1 1.562-1H65.3c.596 0 .863.448.596 1L40.768 53c-.178.368-.698.702-1.562 1z"/></g></svg>